<svg xmlns:dc="http://purl.org/dc/elements/1.1/" xmlns:cc="http://creativecommons.org/ns#" xmlns:rdf="http://www.w3.org/1999/02/22-rdf-syntax-ns#" xmlns:svg="http://www.w3.org/2000/svg" xmlns="http://www.w3.org/2000/svg" xmlns:sodipodi="http://sodipodi.sourceforge.net/DTD/sodipodi-0.dtd" xmlns:inkscape="http://www.inkscape.org/namespaces/inkscape" version="1.1" x="0px" y="0px" viewBox="0 0 100 100"><g transform="translate(0,-952.36218)"><path style="text-indent:0;text-transform:none;direction:ltr;block-progression:tb;baseline-shift:baseline;color:#000000;enable-background:accumulate;" d="m 55.538322,990.35099 a 2.0550817,2.0550817 0 0 0 -1.6268,1.4554 l -7.192,22.43241 -5.651,-13.3568 a 2.0550817,2.0550817 0 0 0 -3.6816,-0.2575 l -4.3666,7.62 -5.4797,0 a 2.0550817,2.0550817 0 1 0 0,4.1098 l 6.6784,0 a 2.0550817,2.0550817 0 0 0 1.798,-1.0274 l 2.9111,-5.0514 6.1646,14.7266 a 2.0550817,2.0550817 0 0 0 3.8529,-0.1699 l 6.9352,-21.74751 5.5653,16.78151 a 2.0550817,2.0550817 0 0 0 3.7672,0.3425 l 3.9386,-6.8496 6.1646,0 a 2.0550817,2.0550817 0 1 0 0,-4.1098 l -7.3633,0 a 2.0550817,2.0550817 0 0 0 -1.798,1.0275 l -2.2261,3.9385 -6.0791,-18.49381 a 2.0550817,2.0550817 0 0 0 -2.3117,-1.37 z" fill="#000000" fill-opacity="1" stroke="none" marker="none" visibility="visible" display="inline" overflow="visible"></path></g></svg>