<svg xmlns="http://www.w3.org/2000/svg" data-name="Layer 1" viewBox="0 0 100 100" x="0px" y="0px"><title>Artboard 5</title><path d="M50,95.08A45.08,45.08,0,1,1,95.08,50,45.13,45.13,0,0,1,50,95.08Zm0-83.52A38.44,38.44,0,1,0,88.44,50,38.48,38.48,0,0,0,50,11.56Z"></path><path d="M50,65.22a3.32,3.32,0,0,1-3.32-3.32V38.3a3.32,3.32,0,0,1,6.65,0V61.9A3.32,3.32,0,0,1,50,65.22Z"></path><path d="M59.3,78.51A3.32,3.32,0,0,1,56,75.19V25a3.32,3.32,0,1,1,6.65,0V75.19A3.32,3.32,0,0,1,59.3,78.51Z"></path><path d="M40.7,78.51a3.32,3.32,0,0,1-3.32-3.32V25A3.32,3.32,0,1,1,44,25V75.19A3.32,3.32,0,0,1,40.7,78.51Z"></path><path d="M31.39,71.87a3.32,3.32,0,0,1-3.32-3.32V31.66a3.32,3.32,0,1,1,6.65,0V68.54A3.32,3.32,0,0,1,31.39,71.87Z"></path><path d="M22.09,65.22a3.32,3.32,0,0,1-3.32-3.32V38.3a3.32,3.32,0,0,1,6.65,0V61.9A3.32,3.32,0,0,1,22.09,65.22Z"></path><path d="M68.61,71.87a3.32,3.32,0,0,1-3.32-3.32V31.66a3.32,3.32,0,1,1,6.65,0V68.54A3.32,3.32,0,0,1,68.61,71.87Z"></path><path d="M77.91,65.22a3.32,3.32,0,0,1-3.32-3.32V38.3a3.32,3.32,0,0,1,6.65,0V61.9A3.32,3.32,0,0,1,77.91,65.22Z"></path></svg>